<?xml version="1.0" standalone="no"?>
<!DOCTYPE svg PUBLIC "-//W3C//DTD SVG 20010904//EN"
 "http://www.w3.org/TR/2001/REC-SVG-20010904/DTD/svg10.dtd">
<svg version="1.0" xmlns="http://www.w3.org/2000/svg"
 width="16.000000pt" height="16.000000pt" viewBox="0 0 16.000000 16.000000"
 preserveAspectRatio="xMidYMid meet">
<metadata>
Created by potrace 1.11, written by Peter Selinger 2001-2013
</metadata>
<g transform="translate(0.000000,16.000000) scale(0.003077,-0.003077)"
fill="#000000" stroke="none">
<path d="M40 3342 l0 -70 38 -7 c20 -4 38 -7 39 -6 2 0 24 -6 50 -13 27 -8 60
-17 76 -20 l27 -6 0 -680 0 -679 -37 -10 c-21 -5 -73 -17 -116 -26 l-77 -17 0
-69 0 -70 438 1 c469 2 549 8 702 60 129 43 294 153 357 238 15 20 33 42 39
49 22 23 92 169 107 223 68 240 48 520 -50 718 -40 81 -121 190 -174 236 -40
34 -153 107 -191 124 -16 7 -38 16 -50 22 -25 10 -151 44 -208 56 -19 4 -245
9 -502 11 l-468 4 0 -69z m891 -146 c208 -65 331 -230 369 -496 11 -83 6 -309
-10 -380 -66 -302 -252 -462 -533 -456 l-81 1 0 679 -1 679 105 -6 c58 -4 126
-13 151 -21z"/>
<path d="M1880 3341 l0 -68 81 -18 c44 -9 96 -21 115 -26 l34 -10 0 -679 0
-679 -37 -10 c-21 -5 -73 -17 -115 -26 l-78 -17 0 -69 0 -69 659 0 659 0 11
68 c16 102 52 360 57 420 l5 52 -71 0 -71 0 -85 -175 -85 -175 -221 2 -222 3
0 300 0 300 39 -1 c22 0 83 -4 135 -8 52 -4 122 -10 155 -12 33 -2 77 -6 98
-9 l37 -6 0 126 0 126 -87 -6 c-49 -4 -95 -9 -103 -10 -21 -4 -197 -18 -240
-19 l-34 -1 -1 288 0 287 221 0 222 0 7 -27 c3 -16 25 -88 47 -160 l42 -133
73 0 73 0 0 255 0 255 -660 0 -660 0 0 -69z"/>
<path d="M3390 3340 c0 -55 3 -70 15 -71 8 -1 18 -2 23 -3 4 -1 43 -10 87 -20
44 -10 85 -20 91 -21 11 -3 42 -48 186 -270 35 -55 115 -178 177 -273 l111
-172 -112 -156 c-179 -248 -272 -376 -298 -414 -39 -56 -73 -90 -88 -90 -31 0
-187 -42 -193 -52 -4 -6 -7 -37 -7 -70 l1 -58 306 0 307 0 -1 68 0 67 -75 24
c-41 13 -76 25 -78 26 -3 3 281 411 329 473 l18 24 163 -249 c90 -136 167
-253 171 -260 5 -8 -15 -15 -63 -23 -38 -6 -70 -17 -71 -23 -1 -14 -1 -96 0
-114 1 -10 89 -13 406 -13 l405 0 0 69 c0 73 -3 77 -60 87 -14 3 -47 10 -75
17 l-50 13 -242 359 c-133 198 -249 374 -258 391 l-17 30 154 215 c84 117 175
243 202 279 26 36 51 71 55 78 4 8 59 26 122 40 l114 27 3 68 3 67 -304 0
c-235 0 -306 -3 -309 -12 -4 -11 -3 -93 1 -119 1 -3 35 -16 77 -28 41 -12 74
-26 72 -30 -10 -27 -294 -430 -302 -428 -9 3 -295 437 -296 449 0 3 32 12 70
19 l70 12 0 69 0 68 -420 0 -420 0 0 -70z"/>
</g>
</svg>
